Coordinates
version=1
nRows=6
nColumns=46
inDegrees=yes

Units are S.I. units (second, meters, Newtons, ...)
Angles are in degrees.

endheader
time	pelvis_tilt	pelvis_list	pelvis_rotation	pelvis_tx	pelvis_ty	pelvis_tz	bb_angle	bb_tx	bb_ty	bb_tz	hip_flexion_r	hip_adduction_r	hip_rotation_r	knee_angle_r	knee_angle_r_beta	ankle_angle_r	subtalar_angle_r	mtp_angle_r	crank_angle_r	hip_flexion_l	hip_adduction_l	hip_rotation_l	knee_angle_l	knee_angle_l_beta	ankle_angle_l	subtalar_angle_l	mtp_angle_l	crank_angle_l	lumbar_extension	lumbar_bending	lumbar_rotation	arm_flex_r	arm_add_r	arm_rot_r	elbow_flex_r	pro_sup_r	wrist_flex_r	wrist_dev_r	arm_flex_l	arm_add_l	arm_rot_l	elbow_flex_l	pro_sup_l	wrist_flex_l	wrist_dev_l
      7.50000000	    -21.82852070	     -3.59208299	     -6.73141274	      0.19142721	      1.04155323	     -0.22601246	      0.00000000	      0.50000000	      0.00000000	      0.25000000	     93.97005166	      2.86166752	      1.77217890	    102.52112488	      1.78933118	      0.05921292	     -7.16631685	      0.00000000	      0.00000000	     48.99741055	    -11.19707829	     -1.90239249	     60.39211839	      1.05404131	    -22.22068602	    -17.82629461	      0.00000000	      0.00000000	    -50.38321303	      1.23575620	      4.79934334	     78.09045802	    -20.61336520	     48.79685015	     64.67159016	     48.07547210	      0.00000000	      0.00000000	     62.54249343	    -22.09958426	     23.54047413	     72.30741234	     47.48006620	      0.00000000	      0.00000000
      7.50500000	    -21.77745020	     -3.41850253	     -6.59835034	      0.19140132	      1.04151002	     -0.22613942	      0.00000000	      0.50000000	      0.00000000	      0.25000000	     93.58226667	      2.76954732	      1.92530459	    101.71815031	      1.77531663	      0.09697114	     -7.25267159	      0.00000000	      0.00000000	     49.36577786	    -10.92892005	     -1.73631557	     61.40081077	      1.07164631	    -22.62058402	    -18.15533628	      0.00000000	      0.00000000	    -50.36235620	      1.16188522	      4.61444759	     77.93994088	    -20.53608779	     48.53990534	     64.59454266	     48.08700685	      0.00000000	      0.00000000	     62.59057855	    -21.92184130	     23.42030867	     72.18941348	     47.49999701	      0.00000000	      0.00000000
      7.51000000	    -21.67276400	     -3.23323178	     -6.46364655	      0.19142401	      1.04154842	     -0.22622541	      0.00000000	      0.50000000	      0.00000000	      0.25000000	     93.10801736	      2.75709851	      2.16941089	    100.89687920	      1.76098275	      0.16850739	     -7.36478037	      0.00000000	      0.00000000	     49.66518709	    -10.65217071	     -1.57917704	     62.39146207	      1.08893644	    -22.96522013	    -18.33765260	      0.00000000	      0.00000000	    -50.38691814	      1.05958327	      4.41578605	     77.87754925	    -20.48141578	     48.43988345	     64.41674839	     48.09626603	      0.00000000	      0.00000000	     62.71488199	    -21.80655742	     23.46621031	     71.98729290	     47.51937274	      0.00000000	      0.00000000
      7.51500000	    -21.55789976	     -3.07908198	     -6.33344569	      0.19149804	      1.04161097	     -0.22634285	      0.00000000	      0.50000000	      0.00000000	      0.25000000	     92.63249073	      2.65016786	      2.30602134	    100.07320597	      1.74660694	      0.13736234	     -7.46857318	      0.00000000	      0.00000000	     49.96031846	    -10.40924514	     -1.42089836	     63.37749300	      1.10614592	    -23.31526081	    -18.54275620	      0.00000000	      0.00000000	    -50.44327229	      0.99083157	      4.26028719	     77.78285265	    -20.40472637	     48.22156220	     64.30438663	     48.06623742	      0.00000000	      0.00000000	     62.76105115	    -21.67174213	     23.40671745	     71.90911190	     47.51051872	      0.00000000	      0.00000000
      7.52000000	    -21.40313933	     -2.98362242	     -6.08980322	      0.19127386	      1.04172709	     -0.22629526	      0.00000000	      0.50000000	      0.00000000	      0.25000000	     92.08069194	      2.51752905	      2.42177065	     99.27537571	      1.73268217	      0.26853338	     -7.36372395	      0.00000000	      0.00000000	     50.28606942	    -10.16266769	     -1.13971436	     64.39086497	      1.12383260	    -23.54541897	    -18.49716321	      0.00000000	      0.00000000	    -50.51899705	      0.99532376	      4.06521790	     77.89012935	    -20.42088627	     48.45417630	     64.02189245	     48.04042184	      0.00000000	      0.00000000	     63.21796235	    -21.71800101	     24.05380223	     71.35258131	     47.45962886	      0.00000000	      0.00000000
      7.52500000	    -21.36830645	     -2.72938966	     -6.00447283	      0.19136399	      1.04163571	     -0.22628688	      0.00000000	      0.50000000	      0.00000000	      0.25000000	     91.69164454	      2.45125054	      2.69901689	     98.49010419	      1.71897660	      0.35424274	     -7.25059483	      0.00000000	      0.00000000	     50.61521685	     -9.88596369	     -1.01277896	     65.33257982	      1.14026863	    -23.34181568	    -17.91804743	      0.00000000	      0.00000000	    -50.49482060	      0.87194385	      3.88430422	     77.60718930	    -20.16491472	     47.26314251	     64.36691772	     47.88220189	      0.00000000	      0.00000000	     62.69287413	    -21.45529989	     23.41612937	     71.58416309	     47.34695576	      0.00000000	      0.00000000
